<?xml version="1.0" standalone="no"?>
<!DOCTYPE svg PUBLIC "-//W3C//DTD SVG 20010904//EN"
 "http://www.w3.org/TR/2001/REC-SVG-20010904/DTD/svg10.dtd">
<svg version="1.0" xmlns="http://www.w3.org/2000/svg"
 width="310.000000pt" height="195.000000pt" viewBox="0 0 310.000000 195.000000"
 preserveAspectRatio="xMidYMid meet">

<g transform="translate(0.000000,195.000000) scale(0.100000,-0.100000)"
fill="#000000" stroke="none">
<path d="M1927 1562 c-76 -37 -103 -55 -123 -85 l-25 -37 -43 35 c-71 58 -130
79 -221 80 -71 0 -88 -4 -147 -33 -105 -51 -177 -149 -193 -263 -8 -55 9 -148
37 -202 26 -52 93 -118 147 -144 l43 -22 -61 -7 c-100 -11 -57 -26 91 -32 142
-5 308 4 308 18 0 4 -26 11 -57 15 l-58 7 40 20 c22 11 58 38 81 60 l41 39 57
-16 c52 -15 60 -15 113 0 66 19 164 66 211 102 31 23 32 27 32 94 0 67 -1 69
-25 69 l-25 0 0 125 0 125 -25 -6 c-23 -6 -25 -4 -25 30 0 34 -2 36 -25 30
-22 -5 -25 -3 -25 20 0 15 -5 26 -12 25 -7 0 -57 -22 -111 -47z m113 8 c0 -16
-17 -29 -74 -55 -108 -51 -124 -80 -128 -226 -3 -106 -4 -112 -25 -120 l-23
-8 0 129 0 128 35 12 c33 11 35 14 30 44 -7 32 -6 32 82 73 48 23 91 42 96 42
4 1 7 -8 7 -19z m40 -58 c0 -24 -7 -31 -64 -56 -44 -18 -74 -40 -93 -64 -25
-33 -28 -47 -33 -137 -4 -85 -8 -100 -22 -103 -16 -3 -18 7 -18 113 l0 116 35
15 c30 12 34 17 29 42 -6 27 -2 30 73 64 43 20 81 37 86 37 4 1 7 -11 7 -27z
m-499 7 c73 -16 45 -29 -63 -29 -109 0 -139 9 -83 26 52 16 82 17 146 3z m-71
-63 c56 1 98 6 122 17 35 15 39 15 60 -3 l23 -18 -59 -17 c-74 -22 -265 -18
-310 6 l-29 16 23 16 c21 15 26 15 54 0 22 -12 56 -17 116 -17z m330 9 c0 -8
-7 -15 -16 -15 -14 0 -14 3 -4 15 7 8 14 15 16 15 2 0 4 -7 4 -15z m290 -108
l0 -124 -50 -27 c-40 -22 -152 -66 -167 -66 -1 0 -3 42 -3 94 l0 94 31 11 c28
10 31 14 25 41 -5 30 -4 32 67 65 39 18 78 34 85 34 9 1 12 -30 12 -122z
m-230 73 c0 -5 -5 -10 -11 -10 -5 0 -7 5 -4 10 3 6 8 10 11 10 2 0 4 -4 4 -10z
m-535 -27 c69 -20 275 -13 329 10 37 16 40 16 58 1 28 -26 23 -53 -15 -69
-107 -44 -434 -31 -477 19 -16 20 16 70 39 60 9 -4 39 -13 66 -21z m585 -33
c0 -5 -5 -10 -11 -10 -5 0 -7 5 -4 10 3 6 8 10 11 10 2 0 4 -4 4 -10z m-610
-70 c76 -19 281 -16 359 4 35 9 65 16 67 16 3 0 4 -19 2 -42 l-3 -43 -55 -12
c-121 -29 -341 -21 -437 15 -56 21 -68 38 -54 75 10 26 12 27 38 14 16 -8 53
-20 83 -27z m-84 -89 c64 -25 205 -44 278 -39 l56 4 0 -48 0 -48 -67 0 c-102
1 -207 17 -262 40 -48 21 -61 41 -61 96 0 17 -5 18 56 -5z m909 -92 c-21 -22
-165 -94 -218 -108 l-38 -10 3 50 3 50 105 42 c58 23 116 50 130 60 l25 18 3
-42 c2 -28 -2 -47 -13 -60z m-415 16 c52 -14 103 -28 113 -31 13 -4 17 -16 17
-50 0 -24 -3 -44 -6 -44 -4 0 -62 17 -130 37 l-124 37 0 38 c0 46 2 47 130 13z
m-395 -71 c47 -9 125 -14 190 -13 104 2 195 -13 195 -32 0 -34 -284 -52 -389
-25 -73 19 -86 27 -108 69 -15 29 -15 30 9 23 12 -4 59 -14 103 -22z m161
-116 c57 0 118 3 135 7 47 11 27 -10 -28 -29 -60 -20 -156 -20 -216 0 -56 19
-75 40 -27 29 18 -4 79 -7 136 -7z"/>
<path d="M1097 823 c-4 -3 -7 -75 -7 -160 0 -146 1 -153 20 -153 19 0 20 7 20
160 0 127 -3 160 -13 160 -8 0 -17 -3 -20 -7z"/>
<path d="M1012 793 c2 -10 12 -18 23 -18 11 0 21 8 23 18 3 13 -3 17 -23 17
-20 0 -26 -4 -23 -17z"/>
<path d="M1411 793 c-72 -38 -61 -110 23 -153 62 -32 79 -56 52 -76 -25 -18
-48 -18 -92 1 l-35 15 3 -28 c2 -21 11 -30 42 -40 76 -25 156 14 156 77 0 48
-10 61 -72 92 -49 24 -59 34 -56 52 3 20 8 22 61 20 41 -1 57 2 57 11 0 39
-86 57 -139 29z"/>
<path d="M820 655 c0 -138 1 -145 20 -145 18 0 20 7 20 65 l0 65 60 0 c47 0
60 3 60 15 0 12 -13 15 -60 15 l-60 0 0 50 0 50 60 0 c47 0 60 3 60 15 0 12
-16 15 -80 15 l-80 0 0 -145z"/>
<path d="M1590 755 c0 -18 -5 -25 -20 -25 -15 0 -20 -7 -20 -25 0 -18 5 -25
20 -25 17 0 19 -8 22 -77 3 -73 5 -79 30 -91 31 -15 78 -6 78 14 0 19 9 18 32
-3 25 -23 107 -22 142 1 32 20 46 53 46 107 0 59 -42 99 -104 99 -25 0 -56 -5
-70 -11 -37 -17 -60 -72 -52 -125 5 -42 4 -44 -19 -44 -24 0 -25 2 -25 65 0
63 1 65 25 65 20 0 25 5 25 25 0 20 -5 25 -25 25 -20 0 -25 5 -25 25 0 21 -5
25 -30 25 -25 0 -30 -4 -30 -25z m254 -81 c9 -9 16 -32 16 -54 0 -44 -20 -70
-55 -70 -28 0 -55 34 -55 70 0 58 58 91 94 54z"/>
<path d="M1020 620 c0 -91 3 -110 15 -110 12 0 15 19 15 110 0 91 -3 110 -15
110 -12 0 -15 -19 -15 -110z"/>
<path d="M1189 701 c-25 -25 -29 -37 -29 -83 0 -32 6 -62 15 -75 23 -33 81
-47 133 -34 60 17 54 35 -8 26 -61 -8 -100 11 -100 50 0 23 3 24 78 27 l77 3
-3 35 c-5 78 -105 109 -163 51z m115 -17 c32 -32 20 -44 -44 -44 -45 0 -60 3
-60 14 0 24 29 46 60 46 16 0 36 -7 44 -16z"/>
<path d="M1930 620 l0 -110 30 0 30 0 0 68 c0 72 16 102 53 102 14 0 17 -10
17 -58 0 -36 6 -66 15 -79 19 -27 83 -46 122 -37 57 12 63 16 63 34 0 17 -6
18 -55 13 -59 -6 -85 5 -85 38 0 17 8 19 75 19 l75 0 0 29 c0 17 -11 42 -26
60 -22 27 -32 31 -74 31 -33 0 -55 -6 -74 -21 l-26 -20 0 20 c0 26 -45 29 -72
4 -17 -15 -18 -15 -18 0 0 11 -8 17 -25 17 l-25 0 0 -110z m264 64 c30 -29 20
-44 -29 -44 -49 0 -56 11 -28 42 20 22 37 23 57 2z"/>
<path d="M1216 425 c-3 -9 -6 -26 -5 -38 1 -14 4 -9 9 13 9 37 7 52 -4 25z"/>
<path d="M1260 433 c0 -4 5 -15 10 -23 8 -13 10 -13 10 2 0 9 -4 20 -10 23 -5
3 -10 3 -10 -2z"/>
<path d="M1350 430 c0 -5 5 -10 11 -10 5 0 7 5 4 10 -3 6 -8 10 -11 10 -2 0
-4 -4 -4 -10z"/>
<path d="M1403 405 c0 -22 2 -30 4 -17 2 12 2 30 0 40 -3 9 -5 -1 -4 -23z"/>
<path d="M1590 390 c0 -27 5 -50 10 -50 6 0 10 23 10 50 0 28 -4 50 -10 50 -5
0 -10 -22 -10 -50z"/>
<path d="M1680 430 c0 -5 5 -10 11 -10 5 0 7 5 4 10 -3 6 -8 10 -11 10 -2 0
-4 -4 -4 -10z"/>
<path d="M1728 394 c-2 -25 0 -48 4 -50 5 -3 8 18 8 45 0 64 -7 66 -12 5z"/>
<path d="M1813 390 c0 -30 2 -43 4 -28 2 15 12 29 21 31 16 4 16 5 0 6 -9 0
-19 11 -21 24 -2 12 -4 -3 -4 -33z"/>
<path d="M1481 394 c0 -11 3 -14 6 -6 3 7 2 16 -1 19 -3 4 -6 -2 -5 -13z"/>
<path d="M1683 375 c0 -22 2 -30 4 -17 2 12 2 30 0 40 -3 9 -5 -1 -4 -23z"/>
<path d="M1263 364 c-6 -13 -7 -24 -3 -24 9 0 25 39 18 45 -2 2 -8 -7 -15 -21z"/>
<path d="M1352 360 c0 -14 2 -19 5 -12 2 6 2 18 0 25 -3 6 -5 1 -5 -13z"/>
<path d="M1480 358 c0 -13 7 -18 28 -17 21 1 22 2 7 6 -11 3 -23 10 -27 17 -5
7 -8 5 -8 -6z"/>
<path d="M1220 350 c0 -5 5 -10 11 -10 5 0 7 5 4 10 -3 6 -8 10 -11 10 -2 0
-4 -4 -4 -10z"/>
<path d="M1838 343 c7 -3 16 -2 19 1 4 3 -2 6 -13 5 -11 0 -14 -3 -6 -6z"/>
</g>
</svg>
